<svg width="171" height="31" viewBox="0 0 171 31" fill="none" xmlns="http://www.w3.org/2000/svg">
<g filter="url(#filter0_d_1_29)">
<rect x="39.902" y="0.996765" width="22" height="22" fill="#D9D9D9"/>
<rect x="39.902" y="0.996765" width="22" height="22" fill="black" fill-opacity="0.2"/>
</g>
<g filter="url(#filter1_d_1_29)">
<rect x="74.902" y="0.996765" width="22" height="22" fill="#D9D9D9"/>
<rect x="74.902" y="0.996765" width="22" height="22" fill="black" fill-opacity="0.2"/>
</g>
<g filter="url(#filter2_d_1_29)">
<rect x="109.902" y="0.996765" width="22" height="22" fill="#D9D9D9"/>
<rect x="109.902" y="0.996765" width="22" height="22" fill="black" fill-opacity="0.2"/>
</g>
<g filter="url(#filter3_d_1_29)">
<rect x="144.902" y="0.996765" width="22" height="22" fill="#D9D9D9"/>
<rect x="144.902" y="0.996765" width="22" height="22" fill="black" fill-opacity="0.2"/>
</g>
<g filter="url(#filter4_d_1_29)">
<rect x="4.90198" y="0.996765" width="22" height="22" fill="#D9D9D9"/>
<rect x="4.90198" y="0.996765" width="22" height="22" fill="black" fill-opacity="0.2"/>
</g>
<path d="M22.902 18.9968H8.90198V4.99677H22.902M22.902 2.99677H8.90198C8.37154 2.99677 7.86284 3.20748 7.48776 3.58255C7.11269 3.95762 6.90198 4.46633 6.90198 4.99677V18.9968C6.90198 19.5272 7.11269 20.0359 7.48776 20.411C7.86284 20.7861 8.37154 20.9968 8.90198 20.9968H22.902C23.4324 20.9968 23.9411 20.7861 24.3162 20.411C24.6913 20.0359 24.902 19.5272 24.902 18.9968V4.99677C24.902 3.88677 24.002 2.99677 22.902 2.99677ZM20.402 16.2468C20.402 14.7468 17.402 13.9968 15.902 13.9968C14.402 13.9968 11.402 14.7468 11.402 16.2468V16.9968H20.402M15.902 12.2468C16.4987 12.2468 17.071 12.0097 17.493 11.5878C17.9149 11.1658 18.152 10.5935 18.152 9.99677C18.152 9.40003 17.9149 8.82773 17.493 8.40578C17.071 7.98382 16.4987 7.74677 15.902 7.74677C15.3052 7.74677 14.7329 7.98382 14.311 8.40578C13.889 8.82773 13.652 9.40003 13.652 9.99677C13.652 10.5935 13.889 11.1658 14.311 11.5878C14.7329 12.0097 15.3052 12.2468 15.902 12.2468Z" fill="black"/>
<path d="M51.902 18.9968C51.902 18.6568 51.942 18.3268 51.992 17.9968H42.902V7.99677L50.902 12.9968L58.902 7.99677V13.0868C59.622 13.2068 60.292 13.4568 60.902 13.8068V5.99677C60.902 4.89677 60.002 3.99677 58.902 3.99677H42.902C41.802 3.99677 40.902 4.89677 40.902 5.99677V17.9968C40.902 19.0968 41.802 19.9968 42.902 19.9968H51.992C51.942 19.6668 51.902 19.3368 51.902 18.9968ZM58.902 5.99677L50.902 10.9968L42.902 5.99677H58.902ZM56.652 22.1568L53.902 19.1568L55.062 17.9968L56.652 19.5868L60.242 15.9968L61.402 17.4068L56.652 22.1568Z" fill="black"/>
<path d="M81.702 1.99677H90.102C93.302 1.99677 95.902 4.59677 95.902 7.79677V16.1968C95.902 17.735 95.2909 19.2103 94.2032 20.298C93.1155 21.3857 91.6402 21.9968 90.102 21.9968H81.702C78.502 21.9968 75.902 19.3968 75.902 16.1968V7.79677C75.902 6.25851 76.513 4.78326 77.6008 3.69555C78.6885 2.60783 80.1637 1.99677 81.702 1.99677ZM81.502 3.99677C80.5472 3.99677 79.6315 4.37605 78.9564 5.05118C78.2813 5.72631 77.902 6.64199 77.902 7.59677V16.3968C77.902 18.3868 79.512 19.9968 81.502 19.9968H90.302C91.2568 19.9968 92.1724 19.6175 92.8476 18.9424C93.5227 18.2672 93.902 17.3515 93.902 16.3968V7.59677C93.902 5.60677 92.292 3.99677 90.302 3.99677H81.502ZM91.152 5.49677C91.4835 5.49677 91.8014 5.62846 92.0359 5.86288C92.2703 6.0973 92.402 6.41524 92.402 6.74677C92.402 7.07829 92.2703 7.39623 92.0359 7.63065C91.8014 7.86507 91.4835 7.99677 91.152 7.99677C90.8205 7.99677 90.5025 7.86507 90.2681 7.63065C90.0337 7.39623 89.902 7.07829 89.902 6.74677C89.902 6.41524 90.0337 6.0973 90.2681 5.86288C90.5025 5.62846 90.8205 5.49677 91.152 5.49677ZM85.902 6.99677C87.2281 6.99677 88.4998 7.52355 89.4375 8.46123C90.3752 9.39891 90.902 10.6707 90.902 11.9968C90.902 13.3228 90.3752 14.5946 89.4375 15.5323C88.4998 16.47 87.2281 16.9968 85.902 16.9968C84.5759 16.9968 83.3041 16.47 82.3664 15.5323C81.4288 14.5946 80.902 13.3228 80.902 11.9968C80.902 10.6707 81.4288 9.39891 82.3664 8.46123C83.3041 7.52355 84.5759 6.99677 85.902 6.99677ZM85.902 8.99677C85.1063 8.99677 84.3433 9.31284 83.7807 9.87544C83.218 10.4381 82.902 11.2011 82.902 11.9968C82.902 12.7924 83.218 13.5555 83.7807 14.1181C84.3433 14.6807 85.1063 14.9968 85.902 14.9968C86.6976 14.9968 87.4607 14.6807 88.0233 14.1181C88.5859 13.5555 88.902 12.7924 88.902 11.9968C88.902 11.2011 88.5859 10.4381 88.0233 9.87544C87.4607 9.31284 86.6976 8.99677 85.902 8.99677Z" fill="black"/>
<path d="M120.939 2.83011C115.934 2.83011 111.854 6.90928 111.854 11.9143C111.854 13.5184 112.276 15.0768 113.064 16.4518L111.781 21.1634L116.594 19.8984C117.923 20.6226 119.417 21.0076 120.939 21.0076C125.944 21.0076 130.023 16.9284 130.023 11.9234C130.023 9.49428 129.079 7.21178 127.364 5.49761C125.65 3.77428 123.368 2.83011 120.939 2.83011ZM120.948 4.36094C122.964 4.36094 124.853 5.14928 126.283 6.57928C127.704 8.00928 128.492 9.90678 128.492 11.9234C128.492 16.0851 125.1 19.4676 120.939 19.4676C119.582 19.4676 118.253 19.1101 117.098 18.4134L116.823 18.2576L113.963 19.0093L114.724 16.2226L114.54 15.9293C113.789 14.7468 113.385 13.3443 113.385 11.9143C113.394 7.75261 116.777 4.36094 120.948 4.36094ZM117.721 7.71594C117.574 7.71594 117.327 7.77094 117.116 8.00011C116.914 8.22928 116.319 8.78844 116.319 9.89761C116.319 11.0159 117.134 12.0884 117.235 12.2443C117.364 12.4001 118.849 14.6918 121.131 15.6634C121.672 15.9109 122.094 16.0484 122.424 16.1493C122.964 16.3234 123.459 16.2959 123.854 16.2409C124.294 16.1768 125.192 15.6909 125.384 15.1593C125.577 14.6276 125.577 14.1784 125.522 14.0776C125.458 13.9859 125.311 13.9309 125.082 13.8301C124.853 13.7018 123.734 13.1518 123.533 13.0784C123.322 13.0051 123.194 12.9684 123.019 13.1884C122.873 13.4176 122.433 13.9309 122.304 14.0776C122.167 14.2334 122.039 14.2518 121.819 14.1418C121.58 14.0226 120.847 13.7843 119.985 13.0143C119.307 12.4093 118.858 11.6668 118.72 11.4376C118.61 11.2176 118.711 11.0801 118.821 10.9793C118.922 10.8784 119.069 10.7134 119.16 10.5759C119.279 10.4476 119.316 10.3468 119.389 10.2001C119.463 10.0443 119.426 9.91594 119.371 9.80594C119.316 9.70511 118.858 8.56844 118.665 8.11928C118.482 7.67928 118.299 7.73428 118.152 7.72511C118.024 7.72511 117.877 7.71594 117.721 7.71594Z" fill="black"/>
<path d="M155.902 1.99677C154.589 1.99677 153.288 2.25542 152.075 2.75797C150.862 3.26052 149.759 3.99711 148.831 4.9257C146.956 6.80106 145.902 9.3446 145.902 11.9968C145.902 16.4168 148.772 20.1668 152.742 21.4968C153.242 21.5768 153.402 21.2668 153.402 20.9968C153.402 20.7668 153.402 20.1368 153.402 19.3068C150.632 19.9068 150.042 17.9668 150.042 17.9668C149.582 16.8068 148.932 16.4968 148.932 16.4968C148.022 15.8768 149.002 15.8968 149.002 15.8968C150.002 15.9668 150.532 16.9268 150.532 16.9268C151.402 18.4468 152.872 17.9968 153.442 17.7568C153.532 17.1068 153.792 16.6668 154.072 16.4168C151.852 16.1668 149.522 15.3068 149.522 11.4968C149.522 10.3868 149.902 9.49677 150.552 8.78677C150.452 8.53677 150.102 7.49677 150.652 6.14677C150.652 6.14677 151.492 5.87677 153.402 7.16677C154.192 6.94677 155.052 6.83677 155.902 6.83677C156.752 6.83677 157.612 6.94677 158.402 7.16677C160.312 5.87677 161.152 6.14677 161.152 6.14677C161.702 7.49677 161.352 8.53677 161.252 8.78677C161.902 9.49677 162.282 10.3868 162.282 11.4968C162.282 15.3168 159.942 16.1568 157.712 16.4068C158.072 16.7168 158.402 17.3268 158.402 18.2568C158.402 19.5968 158.402 20.6768 158.402 20.9968C158.402 21.2668 158.562 21.5868 159.072 21.4968C163.042 20.1568 165.902 16.4168 165.902 11.9968C165.902 10.6835 165.643 9.38319 165.141 8.16993C164.638 6.95667 163.902 5.85428 162.973 4.9257C162.044 3.99711 160.942 3.26052 159.729 2.75797C158.516 2.25542 157.215 1.99677 155.902 1.99677Z" fill="black"/>
<defs>
<filter id="filter0_d_1_29" x="35.902" y="0.996765" width="30" height="30" filterUnits="userSpaceOnUse" color-interpolation-filters="sRGB">
<feFlood flood-opacity="0" result="BackgroundImageFix"/>
<feColorMatrix in="SourceAlpha" type="matrix" values="0 0 0 0 0 0 0 0 0 0 0 0 0 0 0 0 0 0 127 0" result="hardAlpha"/>
<feOffset dy="4"/>
<feGaussianBlur stdDeviation="2"/>
<feComposite in2="hardAlpha" operator="out"/>
<feColorMatrix type="matrix" values="0 0 0 0 0 0 0 0 0 0 0 0 0 0 0 0 0 0 0.25 0"/>
<feBlend mode="normal" in2="BackgroundImageFix" result="effect1_dropShadow_1_29"/>
<feBlend mode="normal" in="SourceGraphic" in2="effect1_dropShadow_1_29" result="shape"/>
</filter>
<filter id="filter1_d_1_29" x="70.902" y="0.996765" width="30" height="30" filterUnits="userSpaceOnUse" color-interpolation-filters="sRGB">
<feFlood flood-opacity="0" result="BackgroundImageFix"/>
<feColorMatrix in="SourceAlpha" type="matrix" values="0 0 0 0 0 0 0 0 0 0 0 0 0 0 0 0 0 0 127 0" result="hardAlpha"/>
<feOffset dy="4"/>
<feGaussianBlur stdDeviation="2"/>
<feComposite in2="hardAlpha" operator="out"/>
<feColorMatrix type="matrix" values="0 0 0 0 0 0 0 0 0 0 0 0 0 0 0 0 0 0 0.25 0"/>
<feBlend mode="normal" in2="BackgroundImageFix" result="effect1_dropShadow_1_29"/>
<feBlend mode="normal" in="SourceGraphic" in2="effect1_dropShadow_1_29" result="shape"/>
</filter>
<filter id="filter2_d_1_29" x="105.902" y="0.996765" width="30" height="30" filterUnits="userSpaceOnUse" color-interpolation-filters="sRGB">
<feFlood flood-opacity="0" result="BackgroundImageFix"/>
<feColorMatrix in="SourceAlpha" type="matrix" values="0 0 0 0 0 0 0 0 0 0 0 0 0 0 0 0 0 0 127 0" result="hardAlpha"/>
<feOffset dy="4"/>
<feGaussianBlur stdDeviation="2"/>
<feComposite in2="hardAlpha" operator="out"/>
<feColorMatrix type="matrix" values="0 0 0 0 0 0 0 0 0 0 0 0 0 0 0 0 0 0 0.25 0"/>
<feBlend mode="normal" in2="BackgroundImageFix" result="effect1_dropShadow_1_29"/>
<feBlend mode="normal" in="SourceGraphic" in2="effect1_dropShadow_1_29" result="shape"/>
</filter>
<filter id="filter3_d_1_29" x="140.902" y="0.996765" width="30" height="30" filterUnits="userSpaceOnUse" color-interpolation-filters="sRGB">
<feFlood flood-opacity="0" result="BackgroundImageFix"/>
<feColorMatrix in="SourceAlpha" type="matrix" values="0 0 0 0 0 0 0 0 0 0 0 0 0 0 0 0 0 0 127 0" result="hardAlpha"/>
<feOffset dy="4"/>
<feGaussianBlur stdDeviation="2"/>
<feComposite in2="hardAlpha" operator="out"/>
<feColorMatrix type="matrix" values="0 0 0 0 0 0 0 0 0 0 0 0 0 0 0 0 0 0 0.25 0"/>
<feBlend mode="normal" in2="BackgroundImageFix" result="effect1_dropShadow_1_29"/>
<feBlend mode="normal" in="SourceGraphic" in2="effect1_dropShadow_1_29" result="shape"/>
</filter>
<filter id="filter4_d_1_29" x="0.901978" y="0.996765" width="30" height="30" filterUnits="userSpaceOnUse" color-interpolation-filters="sRGB">
<feFlood flood-opacity="0" result="BackgroundImageFix"/>
<feColorMatrix in="SourceAlpha" type="matrix" values="0 0 0 0 0 0 0 0 0 0 0 0 0 0 0 0 0 0 127 0" result="hardAlpha"/>
<feOffset dy="4"/>
<feGaussianBlur stdDeviation="2"/>
<feComposite in2="hardAlpha" operator="out"/>
<feColorMatrix type="matrix" values="0 0 0 0 0 0 0 0 0 0 0 0 0 0 0 0 0 0 0.25 0"/>
<feBlend mode="normal" in2="BackgroundImageFix" result="effect1_dropShadow_1_29"/>
<feBlend mode="normal" in="SourceGraphic" in2="effect1_dropShadow_1_29" result="shape"/>
</filter>
</defs>
</svg>
